<?xml version="1.0" standalone="no"?>
<!DOCTYPE svg PUBLIC "-//W3C//DTD SVG 20010904//EN"
 "http://www.w3.org/TR/2001/REC-SVG-20010904/DTD/svg10.dtd">
<svg version="1.0" xmlns="http://www.w3.org/2000/svg"
 width="520.000000pt" height="520.000000pt" viewBox="0 0 520.000000 520.000000"
 preserveAspectRatio="xMidYMid meet">
<metadata>
Created by potrace 1.14, written by Peter Selinger 2001-2017
</metadata>
<g transform="translate(0.000000,520.000000) scale(0.100000,-0.100000)"
fill="#000000" stroke="none">
<path d="M0 2600 l0 -2600 2600 0 2600 0 0 2600 0 2600 -2600 0 -2600 0 0
-2600z m2691 2130 c231 -17 422 -77 583 -185 53 -35 96 -63 97 -62 0 1 6 45
12 97 l12 95 208 3 207 2 -3 -1637 c-3 -1801 1 -1663 -63 -1851 -133 -387
-444 -635 -889 -707 -119 -20 -419 -20 -545 0 -428 65 -703 269 -834 616 -19
50 -76 286 -76 314 0 3 109 5 243 5 l242 0 29 -100 c61 -213 172 -314 396
-360 182 -37 397 -35 555 5 173 44 310 153 383 305 61 129 74 202 80 443 2
114 2 207 -2 207 -3 0 -27 -15 -53 -34 -357 -254 -1073 -257 -1441 -7 -195
132 -328 331 -392 584 -49 196 -52 249 -48 812 5 580 7 600 83 812 137 384
460 610 920 643 149 11 149 11 296 0z"/>
<path d="M2380 4255 c-300 -49 -441 -200 -495 -530 -22 -132 -21 -895 0 -1021
43 -251 127 -386 289 -463 44 -22 113 -46 152 -55 107 -24 276 -31 390 -16
308 38 484 176 567 445 45 145 49 201 45 645 -4 390 -6 420 -27 500 -70 270
-226 427 -481 485 -101 23 -329 29 -440 10z"/>
</g>
</svg>
