<?xml version="1.0" encoding="UTF-8"?> <svg xmlns="http://www.w3.org/2000/svg" width="104" height="110" viewBox="0 0 104 110" fill="none"><path d="M44.8378 15.2867C36.8875 19.2185 30.8229 24.4147 27.206 30.9151L27.1964 30.9324L27.1875 30.95C23.4563 38.3265 21.3635 48.3008 20.8407 61.4546L20.7994 62.4943H21.8399H41.6398V108.25H1V71.9614C1 51.7266 3.60051 36.8746 8.17045 27.9312L8.17505 27.9222L8.17946 27.9131C13.6704 16.6092 23.0884 7.72795 36.0325 1.29391L44.8378 15.2867Z" stroke="#FCC8C5" stroke-width="2"></path><path d="M80.0797 62.4943H99.3596V108.25H58.7197V71.9614C58.7197 51.7316 61.319 36.8819 65.8868 27.9378C71.8873 16.6178 81.3215 7.73629 93.7599 1.30601L102.533 15.2479C95.0549 18.6178 89.0221 23.8432 85.4273 30.95C81.6961 38.3265 79.6032 48.3008 79.0804 61.4546L79.0391 62.4943H80.0797Z" stroke="#FCC8C5" stroke-width="2"></path></svg> 