<?xml version="1.0" encoding="utf-8"?>
<!-- Generator: Adobe Illustrator 26.5.0, SVG Export Plug-In . SVG Version: 6.00 Build 0)  -->
<svg version="1.1" id="Layer_1" xmlns="http://www.w3.org/2000/svg" xmlns:xlink="http://www.w3.org/1999/xlink" x="0px" y="0px"
	 viewBox="0 0 189 161" style="enable-background:new 0 0 189 161;" xml:space="preserve">
<style type="text/css">
	.st0{fill:#3CBA96;}
	.st1{fill:#2C9373;}
	.st2{fill:#45EDB9;}
	.st3{fill:#24775B;}
	.st4{fill:#4EC8E5;}
	.st5{opacity:0.3;fill:#FFFFFF;}
	.st6{fill:#42CCA1;}
	.st7{fill:#7A7A7A;}
	.st8{fill:#606362;}
	.st9{fill:#919191;}
	.st10{fill:#AAAAAA;}
	.st11{fill:#247258;}
</style>
<g>
	<g>
		<g>
			<g>
				<rect x="34.3" y="86.8" class="st0" width="62.5" height="66.8"/>
				<rect x="34.3" y="86.8" class="st1" width="5" height="66.8"/>
				<rect x="91.7" y="86.8" class="st2" width="5" height="66.8"/>
				<rect x="34.3" y="86.8" class="st1" width="62.5" height="4.3"/>
				<rect x="34.3" y="86.8" class="st3" width="5" height="4.3"/>
				<rect x="91.7" y="86.8" class="st0" width="5" height="4.3"/>
				<rect x="34.3" y="79.6" class="st0" width="62.5" height="7.2"/>
				<rect x="91.7" y="79.6" class="st2" width="7.2" height="7.2"/>
				<rect x="32.1" y="79.6" class="st1" width="7.2" height="7.2"/>
			</g>
			<g>
				<rect x="44.4" y="94.5" class="st1" width="10.8" height="13.3"/>
				<rect x="45.3" y="95.5" class="st4" width="9" height="11.4"/>
				<rect x="61.1" y="94.5" class="st1" width="10.8" height="13.3"/>
				<rect x="62.1" y="95.5" class="st4" width="9" height="11.4"/>
				<rect x="44.4" y="112.8" class="st1" width="10.8" height="13.3"/>
				<rect x="45.3" y="113.8" class="st4" width="9" height="11.4"/>
				<rect x="61.1" y="112.8" class="st1" width="10.8" height="13.3"/>
				<rect x="62.1" y="113.8" class="st4" width="9" height="11.4"/>
				<rect x="44.4" y="131.2" class="st1" width="10.8" height="13.3"/>
				<rect x="45.3" y="132.1" class="st4" width="9" height="11.4"/>
				<rect x="61.1" y="131.2" class="st1" width="10.8" height="13.3"/>
				<rect x="62.1" y="132.1" class="st4" width="9" height="11.4"/>
				<path class="st5" d="M71,103v2.9l-1.7,1h-5.1L71,103z M62.1,120l9-5.2v-1h-0.8l-8.2,4.7V120z M62.1,101.6v2.9l9-5.2v-2.9
					L62.1,101.6z M54.3,136.9l-9,5.2v1.4h0.1l8.9-5.1V136.9z M54.3,106.1l-1.3,0.8h1.3V106.1z M54.3,100.3v-1.5l-9,5.2v1.5
					L54.3,100.3z M71,136.9l-9,5.2v1.5h2.5l6.5-3.7V136.9z M45.3,101l9-5.2v-0.4h-4.4l-4.5,2.6V101z M62.1,95.9l0.7-0.4h-0.7V95.9z
					 M48.2,132.1h-2.9v1.7L48.2,132.1z M62.1,138.6l9-5.2v-1.3h-2.8l-6.1,3.6V138.6z M62.1,132.4v1.5l3.1-1.8h-2.5L62.1,132.4z
					 M54.3,143.1v-2.9l-5.9,3.4h5.1L54.3,143.1z M71,118.9V116l-9,5.2v2.9L71,118.9z M54.3,115.6v-1.8h-1.9l-7,4.1v2.9L54.3,115.6z
					 M54.3,124.5V123l-3.8,2.2H53L54.3,124.5z M46.1,113.8h-0.8v0.5L46.1,113.8z"/>
			</g>
		</g>
		<g>
			<g>
				<rect x="76" y="23.9" class="st0" width="76.8" height="129.7"/>
				<rect x="94.3" y="129.7" class="st1" width="40.2" height="23.8"/>
				<rect x="91.1" y="127.1" class="st6" width="46.5" height="2.6"/>
				<rect x="76" y="23.9" class="st1" width="5" height="129.7"/>
				<rect x="147.8" y="23.9" class="st2" width="5" height="129.7"/>
				<rect x="76" y="23.9" class="st1" width="76.8" height="4.3"/>
				<rect x="76" y="23.9" class="st3" width="5" height="4.3"/>
				<rect x="147.8" y="23.9" class="st0" width="5" height="4.3"/>
				<rect x="76" y="16.7" class="st0" width="76.8" height="7.2"/>
				<rect x="147.8" y="16.7" class="st2" width="7.2" height="7.2"/>
				<rect x="73.8" y="16.7" class="st1" width="7.2" height="7.2"/>
				<rect x="88.1" y="12.3" class="st7" width="52.6" height="4.5"/>
				<rect x="88.1" y="12.3" class="st8" width="4.1" height="4.5"/>
				<rect x="136.5" y="12.3" class="st9" width="4.1" height="4.5"/>
				<rect x="97" y="7.8" class="st9" width="34.9" height="4.5"/>
				<rect x="97" y="7.8" class="st7" width="6.3" height="4.5"/>
				<rect x="125.6" y="7.8" class="st10" width="6.3" height="4.5"/>
			</g>
			<g>
				<rect x="101.2" y="134.5" class="st11" width="26.5" height="19"/>
				<path class="st4" d="M107.5,153.6h-5.3v-18h5.3V153.6z M113.9,135.5h-5.3v18h5.3V135.5z M120.2,135.5h-5.3v18h5.3V135.5z
					 M126.6,135.5h-5.3v18h5.3V135.5z"/>
				<rect x="88.1" y="32.4" class="st1" width="10.8" height="23.3"/>
				<rect x="89" y="33.3" class="st4" width="9" height="21.5"/>
				<rect x="102.2" y="32.4" class="st1" width="10.8" height="23.3"/>
				<rect x="103.2" y="33.3" class="st4" width="9" height="21.5"/>
				<rect x="116.3" y="32.4" class="st1" width="10.8" height="23.3"/>
				<rect x="117.3" y="33.3" class="st4" width="9" height="21.5"/>
				<rect x="130.4" y="32.4" class="st1" width="10.8" height="23.3"/>
				<rect x="131.4" y="33.3" class="st4" width="9" height="21.5"/>
				<rect x="88.1" y="60.1" class="st1" width="10.8" height="23.3"/>
				<rect x="89" y="61.1" class="st4" width="9" height="21.5"/>
				<rect x="102.2" y="60.1" class="st1" width="10.8" height="23.3"/>
				<rect x="103.2" y="61.1" class="st4" width="9" height="21.5"/>
				<rect x="116.3" y="60.1" class="st1" width="10.8" height="23.3"/>
				<rect x="117.3" y="61.1" class="st4" width="9" height="21.5"/>
				<rect x="130.4" y="60.1" class="st1" width="10.8" height="23.3"/>
				<rect x="131.4" y="61.1" class="st4" width="9" height="21.5"/>
				<rect x="88.1" y="87.9" class="st1" width="10.8" height="23.3"/>
				<rect x="89" y="88.8" class="st4" width="9" height="21.5"/>
				<rect x="102.2" y="87.9" class="st1" width="10.8" height="23.3"/>
				<rect x="103.2" y="88.8" class="st4" width="9" height="21.5"/>
				<rect x="116.3" y="87.9" class="st1" width="10.8" height="23.3"/>
				<rect x="117.3" y="88.8" class="st4" width="9" height="21.5"/>
				<rect x="130.4" y="87.9" class="st1" width="10.8" height="23.3"/>
				<rect x="131.4" y="88.8" class="st4" width="9" height="21.5"/>
				<rect x="88.1" y="115.6" class="st1" width="10.8" height="7.7"/>
				<rect x="89" y="116.6" class="st4" width="9" height="5.8"/>
				<rect x="102.2" y="115.6" class="st1" width="10.8" height="7.7"/>
				<rect x="103.2" y="116.6" class="st4" width="9" height="5.8"/>
				<rect x="116.3" y="115.6" class="st1" width="10.8" height="7.7"/>
				<rect x="117.3" y="116.6" class="st4" width="9" height="5.8"/>
				<rect x="130.4" y="115.6" class="st1" width="10.8" height="7.7"/>
				<rect x="131.4" y="116.6" class="st4" width="9" height="5.8"/>
				<path class="st5" d="M126.2,82.5L126.2,82.5L126.2,82.5L126.2,82.5z M117.3,91.8l5.2-3h-5.2V91.8z M98,45.5l-9,5.2v4.1h0.1
					l8.9-5.1V45.5z M131.4,95.4l9-5.2v-1.4h-1.1l-7.8,4.5V95.4z M112.1,34.4v-1.1h-5.3l-3.6,2.1v4.2L112.1,34.4z M131.4,77.2l9-5.2
					V70l-9,5.2V77.2z M117.3,103.6l9-5.2v-2.1l-9,5.2V103.6z M131.4,72.8l9-5.2v-2.1l-9,5.2V72.8z M118.6,82.5h3.6l4-2.3v-2.1
					L118.6,82.5z M138.4,54.8l1.9-1.1v-2.1l-5.5,3.2H138.4z M126.2,75.8v-2.1l-9,5.2v2.1L126.2,75.8z M126.2,61.8v-0.7h-2.3
					l-6.7,3.8V67L126.2,61.8z M117.3,62.8l3.1-1.8h-3.1V62.8z M131.4,54.7l9-5.2v-2.1l-9,5.2V54.7z M89,40.9l9-5.2v-2.4h-3L89,36.7
					V40.9z M108.6,137.6l3.5-2h-3.5V137.6z M98,76l-9,5.2v1.3h1.3l7.6-4.4V76z M113.9,142.7v-2.1l-5.3,3.1v2.1L113.9,142.7z
					 M107.5,149.6l-5.3,3.1v0.9h5.3V149.6z M98,98.8l-9,5.2v4.2l9-5.2V98.8z M126.2,116.6h-0.8l-8.2,4.7v1.1h5.3l3.7-2.1V116.6z
					 M131.4,117.3l1.3-0.7h-1.3V117.3z M112.1,104.5l-9,5.2v0.6h2.5l6.5-3.7V104.5z M131.4,122.3v0.1h3.4l5.5-3.2v-2.1L131.4,122.3z
					 M126.6,138.5l-5.3,3.1v4.2l5.3-3.1V138.5z M120.2,136.9l-5.3,3.1v2.1l5.3-3.1V136.9z M120.2,146.4v-4.2l-5.3,3.1v4.2
					L120.2,146.4z M121.3,136.3v2.1l4.9-2.8h-3.6L121.3,136.3z M98,92V90l-9,5.2v2.1L98,92z M98,96.5v-2.1l-9,5.2v2.1L98,96.5z
					 M94.7,116.6h-3.6l-2.1,1.2v2.1L94.7,116.6z M131.4,45.9v4.2l9-5.2v-4.2L131.4,45.9z M112.1,116.8v-0.2h-3.3l-5.7,3.3v2.1
					L112.1,116.8z M98,73.9v-2.1L89,77v2.1L98,73.9z M98,42.5v-4.2l-9,5.2v4.2L98,42.5z M107.5,138.2v-2.1l-5.3,3.1v2.1L107.5,138.2
					z M113.9,153.1l-0.7,0.4h0.7V153.1z M131.4,79.5v3h2l6.9-4v-4.2L131.4,79.5z M126.6,145.8l-5.3,3.1v2.1l5.3-3.1V145.8z
					 M120.2,149.4l-5.3,3.1v1.1h1.8l3.5-2V149.4z M113.9,145.9l-5.3,3.1v4.2l5.3-3.1V145.9z M107.5,146.3v-2.1l-5.3,3.1v2.1
					L107.5,146.3z M98,65.2l-9,5.2v4.2l9-5.2V65.2z M131.4,103.6v2.1l9-5.2v-2.1L131.4,103.6z M117.3,54.1v0.7h6l3-1.7v-4.2
					L117.3,54.1z M112.1,65.8v-2.1l-9,5.2V71L112.1,65.8z M112.1,70v-2.1l-9,5.2v2.1L112.1,70z M119.1,33.3l-1.8,1.1v4.2l9-5.2v0
					H119.1z M112.1,41.5v-4.2l-9,5.2v4.2L112.1,41.5z M112.1,61.1h-7l-2,1.1v4.2l9-5.2V61.1z M126.2,108.6v-2.1l-6.5,3.7h3.6
					L126.2,108.6z M112.1,94.8v-4.2l-9,5.2v4.2L112.1,94.8z M112.1,81.8l-1.2,0.7h1.2V81.8z M136.4,110.3h4V108L136.4,110.3z
					 M111.3,88.8h-3.6l-4.5,2.6v2.1L111.3,88.8z M103.6,88.8h-0.4v0.3L103.6,88.8z"/>
			</g>
		</g>
	</g>
	<g>
		<path class="st8" d="M170.1,157.8H17c-0.4,0-0.7-0.2-1-0.4c-0.3-0.3-0.4-0.6-0.4-1v-4.2c0-0.4,0.2-0.7,0.4-1
			c0.3-0.3,0.6-0.4,1-0.4h153c0.3,0,0.7,0.1,0.9,0.3c0.3,0.3,0.5,0.7,0.5,1.1v1.4v2.8c0,0.6-0.3,1-0.8,1.3
			C170.5,157.7,170.3,157.8,170.1,157.8z"/>
		<path class="st9" d="M170.1,153.6H17c-0.3,0-0.7-0.1-0.9-0.3c-0.3-0.3-0.5-0.7-0.5-1.1l0,0c0-0.4,0.2-0.7,0.4-1
			c0.3-0.3,0.6-0.4,1-0.4h153c0.3,0,0.7,0.1,0.9,0.3c0.3,0.3,0.5,0.7,0.5,1.1l0,0c0,0.3-0.1,0.5-0.2,0.7
			C171,153.3,170.6,153.6,170.1,153.6z"/>
	</g>
</g>
</svg>
