<?xml version="1.0" encoding="utf-8"?>
<!-- Generator: Adobe Illustrator 26.5.0, SVG Export Plug-In . SVG Version: 6.00 Build 0)  -->
<svg version="1.1" id="Layer_1" xmlns="http://www.w3.org/2000/svg" xmlns:xlink="http://www.w3.org/1999/xlink" x="0px" y="0px"
	 viewBox="0 0 189 161" style="enable-background:new 0 0 189 161;" xml:space="preserve">
<style type="text/css">
	.st0{fill:#4EC8E5;}
	.st1{fill:#1FA0B5;}
	.st2{fill:#6EEBFF;}
	.st3{fill:#F7D589;}
	.st4{fill:#CEAE6E;}
	.st5{fill:#FFE5A4;}
	.st6{fill:#DBBE7D;}
	.st7{fill:#AF9361;}
	.st8{opacity:0.2;fill:#FFFFFF;}
	.st9{fill:#606362;}
	.st10{fill:#919191;}
</style>
<g>
	<g>
		<g>
			<g>
				<polygon class="st0" points="122.2,10.6 92.4,10.6 90.5,10.6 60.7,10.6 50.5,19.5 90.5,19.5 92.4,19.5 132.3,19.5 				"/>
				<g>
					<polygon class="st1" points="70.2,10.6 60.7,10.6 50.5,19.5 65.9,19.5 					"/>
					<polygon class="st2" points="117,19.5 132.3,19.5 122.2,10.6 112.7,10.6 					"/>
				</g>
			</g>
			<g>
				<rect x="34.8" y="21.6" class="st3" width="111.3" height="131.5"/>
				<rect x="34.8" y="21.6" class="st4" width="5.1" height="131.5"/>
				<rect x="141" y="21.6" class="st5" width="5.1" height="131.5"/>
				<rect x="34.8" y="21.6" class="st6" width="111.3" height="4.4"/>
				<rect x="34.8" y="21.6" class="st7" width="5.1" height="4.4"/>
				<rect x="141" y="21.6" class="st3" width="5.1" height="4.4"/>
				<rect x="34.8" y="14.3" class="st3" width="111.3" height="7.3"/>
				<rect x="141" y="14.3" class="st5" width="7.3" height="7.3"/>
				<rect x="32.6" y="14.3" class="st4" width="7.3" height="7.3"/>
			</g>
			<g>
				<rect x="44.8" y="41.8" class="st4" width="19.8" height="7.3"/>
				<rect x="45.5" y="42.5" class="st0" width="18.5" height="5.9"/>
				<rect x="44.8" y="58.5" class="st4" width="19.8" height="7.3"/>
				<rect x="45.5" y="59.2" class="st0" width="18.5" height="5.9"/>
				<rect x="44.8" y="75.2" class="st4" width="19.8" height="7.3"/>
				<rect x="45.5" y="75.9" class="st0" width="18.5" height="5.9"/>
				<path class="st8" d="M58.4,42.5l-10.2,5.9h-2.7v-0.6l9.2-5.3H58.4z M48.8,42.5l-3.3,1.9v2.2l7.1-4.1H48.8z M58.4,65.1h3.8l1.8-1
					v-2.2L58.4,65.1z M50,75.9l-4.6,2.6v3.3h1.7l10.2-5.9H50z M63.7,75.9h-3.8l-10.2,5.9h3.8L63.7,75.9z M64,43.7v-1.1l-10.1,5.8
					h1.9L64,43.7z M62.9,59.2H61l-10.2,5.9h1.9L62.9,59.2z M64,80.2v-1.1l-4.6,2.7h1.9L64,80.2z M55.2,59.2h-1.9l-7.8,4.5v1.1
					L55.2,59.2z"/>
				<rect x="68.1" y="41.8" class="st4" width="19.8" height="7.3"/>
				<rect x="68.8" y="42.5" class="st0" width="18.5" height="5.9"/>
				<rect x="68.1" y="58.5" class="st4" width="19.8" height="7.3"/>
				<rect x="68.8" y="59.2" class="st0" width="18.5" height="5.9"/>
				<rect x="68.1" y="75.2" class="st4" width="19.8" height="7.3"/>
				<rect x="68.8" y="75.9" class="st0" width="18.5" height="5.9"/>
				<path class="st8" d="M81.7,42.5l-10.2,5.9h-2.7v-0.6l9.2-5.3H81.7z M72.1,42.5l-3.3,1.9v2.2l7.1-4.1H72.1z M81.7,65.1h3.8l1.8-1
					v-2.2L81.7,65.1z M73.4,75.9l-4.6,2.6v3.3h1.7l10.2-5.9H73.4z M87,75.9h-3.8L73,81.8h3.8L87,75.9z M87.3,43.7v-1.1l-10.1,5.8
					h1.9L87.3,43.7z M86.2,59.2h-1.9L74,65.1h1.9L86.2,59.2z M87.3,80.2v-1.1l-4.6,2.7h1.9L87.3,80.2z M78.5,59.2h-1.9l-7.8,4.5v1.1
					L78.5,59.2z"/>
			</g>
			<g>
				<rect x="44.8" y="101.8" class="st4" width="19.8" height="7.3"/>
				<rect x="45.5" y="102.5" class="st0" width="18.5" height="5.9"/>
				<rect x="44.8" y="118.5" class="st4" width="19.8" height="7.3"/>
				<rect x="45.5" y="119.2" class="st0" width="18.5" height="5.9"/>
				<rect x="44.8" y="135.2" class="st4" width="19.8" height="7.3"/>
				<rect x="45.5" y="135.9" class="st0" width="18.5" height="5.9"/>
				<path class="st8" d="M58.4,102.5l-10.2,5.9h-2.7v-0.6l9.2-5.3H58.4z M48.8,102.5l-3.3,1.9v2.2l7.1-4.1H48.8z M58.4,125.1h3.8
					l1.8-1v-2.2L58.4,125.1z M50,135.9l-4.6,2.6v3.3h1.7l10.2-5.9H50z M63.7,135.9h-3.8l-10.2,5.9h3.8L63.7,135.9z M64,103.7v-1.1
					l-10.1,5.8h1.9L64,103.7z M62.9,119.2H61l-10.2,5.9h1.9L62.9,119.2z M64,140.3v-1.1l-4.6,2.7h1.9L64,140.3z M55.2,119.2h-1.9
					l-7.8,4.5v1.1L55.2,119.2z"/>
				<rect x="68.1" y="101.8" class="st4" width="19.8" height="7.3"/>
				<rect x="68.8" y="102.5" class="st0" width="18.5" height="5.9"/>
				<rect x="68.1" y="118.5" class="st4" width="19.8" height="7.3"/>
				<rect x="68.8" y="119.2" class="st0" width="18.5" height="5.9"/>
				<rect x="68.1" y="135.2" class="st4" width="19.8" height="7.3"/>
				<rect x="68.8" y="135.9" class="st0" width="18.5" height="5.9"/>
				<path class="st8" d="M81.7,102.5l-10.2,5.9h-2.7v-0.6l9.2-5.3H81.7z M72.1,102.5l-3.3,1.9v2.2l7.1-4.1H72.1z M81.7,125.1h3.8
					l1.8-1v-2.2L81.7,125.1z M73.4,135.9l-4.6,2.6v3.3h1.7l10.2-5.9H73.4z M87,135.9h-3.8L73,141.8h3.8L87,135.9z M87.3,103.7v-1.1
					l-10.1,5.8h1.9L87.3,103.7z M86.2,119.2h-1.9L74,125.1h1.9L86.2,119.2z M87.3,140.3v-1.1l-4.6,2.7h1.9L87.3,140.3z M78.5,119.2
					h-1.9l-7.8,4.5v1.1L78.5,119.2z"/>
			</g>
		</g>
		<rect x="91.4" y="34.5" class="st0" width="64.6" height="118.6"/>
		<path class="st8" d="M108.4,153.1H94.7l61.3-35.4v7.9L108.4,153.1z M91.4,149.3L156,112v-2.2l-64.6,37.3V149.3z M91.4,57.7
			l40.1-23.2h-3.8l-36.3,21V57.7z M156,129.5v-2.2l-44.7,25.8h3.8L156,129.5z M91.4,117.2L156,79.9V72l-64.6,37.3V117.2z
			 M152.4,34.5h-13.7L91.4,61.8v7.9L152.4,34.5z M91.4,75.1v2.2L156,40v-2.2L91.4,75.1z M91.4,86.5v2.2L156,51.4l-0.9-1.6L91.4,86.5
			z M91.4,45.3v2.2l22.5-13h-3.8L91.4,45.3z M91.4,134.8v2.2L156,99.7v-2.2L91.4,134.8z M91.4,105v2.2L156,69.9v-2.2L91.4,105z
			 M156,136.2V134l-33.1,19.1h3.8L156,136.2z"/>
		<rect x="91.4" y="34.5" class="st1" width="4" height="118.6"/>
		<rect x="152" y="34.5" class="st2" width="4" height="118.6"/>
		<g>
			<g>
				<rect x="95.5" y="34.5" class="st2" width="0.5" height="118.6"/>
				<rect x="95.9" y="34.5" class="st1" width="0.5" height="118.6"/>
			</g>
			<g>
				<rect x="106.6" y="34.5" class="st2" width="0.5" height="118.6"/>
				<rect x="107" y="34.5" class="st1" width="0.5" height="118.6"/>
			</g>
			<g>
				<rect x="117.7" y="34.5" class="st2" width="0.5" height="118.6"/>
				<rect x="118.2" y="34.5" class="st1" width="0.5" height="118.6"/>
			</g>
			<g>
				<rect x="128.8" y="34.5" class="st2" width="0.5" height="118.6"/>
				<rect x="129.3" y="34.5" class="st1" width="0.5" height="118.6"/>
			</g>
			<g>
				<rect x="139.9" y="34.5" class="st2" width="0.5" height="118.6"/>
				<rect x="140.4" y="34.5" class="st1" width="0.5" height="118.6"/>
			</g>
			<g>
				<rect x="151.1" y="34.5" class="st2" width="0.5" height="118.6"/>
				<rect x="151.5" y="34.5" class="st1" width="0.5" height="118.6"/>
			</g>
		</g>
		<g>
			<g>
				<rect x="95.5" y="55" class="st2" width="56.5" height="0.5"/>
				<rect x="95.5" y="54.6" class="st1" width="56.5" height="0.5"/>
			</g>
			<g>
				<rect x="95.5" y="74.4" class="st2" width="56.5" height="0.5"/>
				<rect x="95.5" y="73.9" class="st1" width="56.5" height="0.5"/>
			</g>
			<g>
				<rect x="95.5" y="93.8" class="st2" width="56.5" height="0.5"/>
				<rect x="95.5" y="93.3" class="st1" width="56.5" height="0.5"/>
			</g>
			<g>
				<rect x="95.5" y="113.2" class="st2" width="56.5" height="0.5"/>
				<rect x="95.5" y="112.7" class="st1" width="56.5" height="0.5"/>
			</g>
			<g>
				<rect x="95.5" y="132.6" class="st2" width="56.5" height="0.5"/>
				<rect x="95.5" y="132.1" class="st1" width="56.5" height="0.5"/>
			</g>
		</g>
	</g>
	<g>
		<path class="st9" d="M171.9,157.4H16.7c-0.4,0-0.8-0.2-1-0.4c-0.3-0.3-0.4-0.6-0.4-1v-4.3c0-0.4,0.2-0.8,0.4-1
			c0.3-0.3,0.6-0.4,1-0.4h155.2c0.4,0,0.7,0.1,0.9,0.3c0.3,0.3,0.5,0.7,0.5,1.1v1.4v2.9c0,0.6-0.3,1.1-0.8,1.3
			C172.3,157.4,172.1,157.4,171.9,157.4z"/>
		<path class="st10" d="M171.9,153.1H16.7c-0.3,0-0.7-0.1-0.9-0.3c-0.3-0.3-0.5-0.7-0.5-1.1l0,0c0-0.4,0.2-0.8,0.4-1
			c0.3-0.3,0.6-0.4,1-0.4h155.2c0.4,0,0.7,0.1,0.9,0.3c0.3,0.3,0.5,0.7,0.5,1.1l0,0c0,0.3-0.1,0.5-0.2,0.8
			C172.9,152.9,172.4,153.1,171.9,153.1z"/>
	</g>
</g>
</svg>
