<?xml version="1.0" encoding="utf-8"?>
<!-- Generator: Adobe Illustrator 27.1.1, SVG Export Plug-In . SVG Version: 6.00 Build 0)  -->
<svg version="1.1" id="Layer_1" xmlns="http://www.w3.org/2000/svg" xmlns:xlink="http://www.w3.org/1999/xlink" x="0px" y="0px"
	 viewBox="0 0 189 143.2" style="enable-background:new 0 0 189 143.2;" xml:space="preserve">
<style type="text/css">
	.st0{fill:#DBDBDB;}
	.st1{fill:#DDDDDD;}
	.st2{fill:#CECECE;}
	.st3{fill:#A0A0A0;}
	.st4{fill:#282828;}
	.st5{fill:#FFFFFF;}
	.st6{fill:#606060;}
	.st7{fill:#FF9D8A;}
	.st8{fill:#D9E1EB;}
	.st9{fill:#F5F7FA;}
	.st10{fill:#D4DDE9;}
	.st11{fill:#363738;}
	.st12{fill:#B5B5B5;}
	.st13{fill:#FF5E3F;}
	.st14{font-family:'Quicksand-Bold';}
	.st15{font-size:5.0457px;}
</style>
<g>
	<path class="st0" d="M33.8,135.8c0,0-23-16.4-29.6-44.2C-2.3,63.8,7.8,30.1,26.9,13c19.1-17,53.6-5.5,69,8.7s15.3,14.3,15.3,14.3
		s14.6,8,33.8,7.3c19.1-0.7,36.2,25.5,40.7,45.9c4.5,20.5-6.3,47.7-6.3,47.7L33.8,135.8z"/>
	<path class="st1" d="M23.4,140c0,0-16-8.7-20.1-28.9s13.9-38.6,15.6-48.7c1.8-10.1-2.1-22.6,13.9-32.3s44.5-6.3,55.3-8.7
		c10.7-2.4,23.4-19.1,44.9-15.3s42.5,15.3,43.5,40.4c1,25-7,25.8,1,39.3c8,13.6,11.2,23,7.3,36.9c-3.9,13.9-11.8,17.7-11.8,17.7
		L23.4,140z"/>
	<path class="st2" d="M56.9,135.5c-1-1-15.6-30.3,0.7-57.1s57.1-23.7,73.4-13.2s24.2,24,25.9,38.3c1.7,14.3-9.3,36.5-9.3,36.5
		L56.9,135.5z"/>
	<g>
		<g>
			<path class="st3" d="M168.5,86.3h-13.1c-2.8,0-5-2.2-5-5v-3.7c0-2.8,2.2-5,5-5h13.1c2.8,0,5,2.2,5,5v3.8
				C173.5,84.1,171.3,86.3,168.5,86.3z"/>
			<polygon class="st3" points="162,91.6 165,84.5 159,84.5 			"/>
		</g>
		<g>
			<g>
				<g>
					<polygon class="st4" points="161.9,77.1 167.3,77.1 167.3,77.9 170,76.5 167.3,74.9 167.3,75.7 161.9,75.7 					"/>
				</g>
				<g>
					<polygon class="st5" points="170,80.2 164.6,80.2 164.6,79.4 161.9,81 164.6,82.5 164.6,81.7 170,81.7 					"/>
				</g>
			</g>
			<g>
				<path class="st4" d="M158.6,81.7l-0.2,0.1c0,0-0.8-0.9-1.2-1.9s-0.4-2.2-0.4-2.2l0.2-0.1l-1.1-2.8c-0.2,0.1-0.4,0.3-0.6,0.7
					c-0.7,1.1-0.6,2.8,0.1,4.4c0.7,1.7,1.3,3.1,2.5,4c0.8,0.6,1.3,0.7,1.9,0.6L158.6,81.7z"/>
				<path class="st4" d="M159.5,81.3l-0.3,0.1l1.2,2.8c0.1,0,0.2-0.1,0.3-0.1c0.3-0.1,0.4-0.6,0.3-0.9l-0.6-1.5
					C160.1,81.3,159.8,81.2,159.5,81.3z"/>
				<path class="st4" d="M156.7,74.4c-0.1,0-0.3,0.1-0.4,0.2l1.1,2.8l0.4-0.1c0.3-0.1,0.6-0.6,0.3-0.9l-0.7-1.5
					C157.4,74.4,157,74.2,156.7,74.4z"/>
			</g>
		</g>
	</g>
	<g>
		<path class="st6" d="M51.4,130.8V99.5c0,0-0.3-8.4,4.1-10.8c4.4-2.4,23.1-1.1,23.1-1.1v43.3H51.4z"/>
	</g>
	<g>
		<g>
			<path class="st7" d="M84.5,58.2c0,0-1.1,9.5-1.5,10.3c-0.4,0.8-0.4,0.8-0.4,0.8l-2.2,1.4c0,0,4.2,5.9,9.3,6.9
				c5.1,1,4.6-2.1,4.6-2.1l-0.8-1.7l1-9.1C94.6,64.7,85.3,60.5,84.5,58.2z"/>
		</g>
		<path class="st5" d="M77.7,71.5l3.4-1.4c0,0,2.2,3.5,7.2,5.6c5.1,2.1,5.1,0.9,5.4,0c0.2-0.9-0.1-1.9-0.1-1.9l0.3-3.1l2,0.7l7,56.7
			l-18,0.9L77.7,71.5z"/>
		<g>
			<path class="st4" d="M94.3,70.8c0,0,1.2,2.8,2.3,9.4s2.2,17.7,2.4,25.5c0.2,7.6,0.4,25.1,0.4,25.1s22.5,0,22.7,0s1.9-8.6,1.9-8.6
				s-10-8.5-10.4-9.9c-0.3-0.9-0.2-18.2-1.7-26c-1.4-8-3.4-9.5-7.4-11.5C100.4,72.7,94.3,70.8,94.3,70.8z"/>
		</g>
		<g>
			<path class="st6" d="M106.1,120.8c-0.1,0-0.2-0.1-0.2-0.2c0-0.7-0.1-9.4-0.2-18c-0.1-8.5-0.2-17.4-0.2-18c0-0.1,0.1-0.2,0.2-0.2
				s0.2,0.1,0.2,0.2c0,0.7,0.1,9.4,0.2,18c0.1,8.5,0.2,17.4,0.2,18C106.3,120.7,106.2,120.8,106.1,120.8z"/>
		</g>
		<g>
			<path class="st4" d="M60.9,118.7l-0.2,12.1h26.5c0,0,1.1-10.3,0.7-11.2C87.4,118.6,60.9,118.7,60.9,118.7z"/>
		</g>
		<g>
			<path class="st6" d="M90.3,68.2c1.1,0.9,2.5,1.5,3.7,2l0.7-5.4c0,0-7-3.2-9.4-5.5C85.8,61.8,87,65.5,90.3,68.2z"/>
		</g>
		<g>
			<path class="st7" d="M102.8,40.5c0,0,1.9,3.1,2.2,7c0.3,3.9,0,13.6-3.1,17.8c-3.1,4.2-9.6,3-12.6,0.4c-2.8-2.3-5.4-4.9-6.1-10
				c-0.7-5.1,1.4-14.6,7.6-16.6C96.9,37.2,102.8,40.5,102.8,40.5z"/>
		</g>
		<g>
			<g>
				<path class="st7" d="M110.7,125.3c0,0-0.3,0-0.8,0c-0.1,0-0.2,0-0.3,0c-0.4,0-1,0-1.5,0c-0.1,0-0.2,0-0.3,0c-0.6,0-1,0-1.4,0
					l0,0c-0.1,0-0.2,0-0.3,0h-0.1c-0.2,0-0.3-0.1-0.6-0.2c-0.3-0.1-5.1-1.2-9.1-1.2c-3.9,0-7.4,0.3-8-0.2c-0.6-0.4-0.9-5.3,2.4-5.6
					l4.1,1.5c0,0,9.3-1.1,12.7,1.4C110.8,123.5,110.7,125.3,110.7,125.3z"/>
			</g>
			<g>
				<g>
					<path class="st4" d="M106.1,125.3c-0.1,0-0.2,0-0.3,0c-0.1-0.1-0.2-0.3-0.3-0.4c-1-1.1-3.5-1.8-4.5-2c-0.1,0-0.1-0.1-0.1-0.2
						s0.1-0.1,0.2-0.1c1.3,0.3,4.2,1.1,5,2.5C106,125,106.1,125.2,106.1,125.3z"/>
				</g>
			</g>
			<g>
				<g>
					<path class="st4" d="M108,125.3c-0.1,0-0.2,0-0.3,0c-1.1-2.1-3-2.7-5.3-3.4h-0.1c-0.1,0-0.1-0.1-0.1-0.2s0.1-0.1,0.2-0.1h0.1
						C104.8,122.3,106.8,122.9,108,125.3z"/>
				</g>
			</g>
			<g>
				<g>
					<path class="st4" d="M109.9,125.3c-0.1,0-0.2,0-0.3,0c-0.7-1.4-3-3.9-6.1-4.5c-0.1,0-0.1-0.1-0.1-0.2s0.1-0.1,0.2-0.1
						C106.7,121.1,109.2,123.6,109.9,125.3z"/>
				</g>
			</g>
		</g>
		<g>
			<path class="st4" d="M85.2,51.4c0,0,1.9-0.9,3.2-3.4c1.3-2.5,1.2-4.9,1.2-4.9s2.4-0.4,6.1,0.7s8,2.5,11.6,0.4
				c3.7-2.1,3.7-5.4,1.9-6.9c-2-1.5-6-0.7-6-0.7s1.5-1.4,0.7-2.3c-0.8-0.9-3.9,0.2-3.9,0.2s-3.7-2.9-10.5-2.5
				c-6.9,0.3-10.2,5.2-10.6,10.5c-0.4,5.4,1.5,10.7,1.5,10.7L85.2,51.4z"/>
		</g>
		<g>
			<g>
				<path class="st6" d="M99.3,52.8c-0.4,1-0.3,2.1-0.4,3.1c-0.1,0.8-0.2,1.8,0.6,2.2c0.3,0.2,2,1,1.1,1.5c-0.3,0.2-0.9,0.1-1.2,0.1
					c-0.2,0-0.6,0-0.8,0c-0.2,0-0.6-0.1-0.8-0.1c-0.1,0-0.2,0.2-0.1,0.3c0.4,0.2,1.1,0.3,1.5,0.3c0.6,0,0.9,0,1.3-0.2
					c0.3-0.1,0.6-0.3,0.6-0.7c0-0.3-0.2-0.8-0.6-0.9c-0.3-0.2-0.8-0.3-1.1-0.6c-0.4-0.3-0.4-0.9-0.4-1.4c0.1-1.2,0.3-2.4,0.4-3.7
					C99.6,52.7,99.3,52.7,99.3,52.8L99.3,52.8z"/>
			</g>
		</g>
		<g>
			<path class="st4" d="M102.8,55.7c-0.1,0.8-0.7,1.2-1.2,1.1c-0.6-0.1-0.9-0.8-0.8-1.5c0.1-0.8,0.7-1.2,1.2-1.1
				C102.6,54.3,102.9,55,102.8,55.7z"/>
		</g>
		<g>
			<path class="st4" d="M96.2,55.1c-0.1,0.8-0.7,1.3-1.2,1.3c-0.6-0.1-0.9-0.8-0.8-1.5c0.1-0.8,0.7-1.3,1.2-1.3
				C95.9,53.7,96.3,54.3,96.2,55.1z"/>
		</g>
		<g>
			<g>
				<path class="st4" d="M101.3,52.7c0.4,0.1,0.8,0,1.2,0c0.1,0,0.2,0,0.3,0c0.1,0-0.1,0,0,0c0,0,0,0,0.1,0h0.1c0.1,0,0.2,0,0.2,0.1
					c0.1,0,0.2,0,0.2,0h0.1h-0.1c0,0,0.1,0,0.2,0c0.2,0,0.3-0.3,0.3-0.6c0-0.1,0-0.1-0.1-0.2c0,0,0,0,0-0.1c0,0,0,0,0,0.1
					c0,0,0,0,0-0.1c0,0,0-0.1-0.1-0.1c0,0-0.1,0-0.1-0.1c-0.1-0.1-0.2-0.1-0.3-0.1c-0.2-0.1-0.4-0.1-0.8-0.1c-0.2,0-0.4,0-0.8,0.1
					c-0.2,0-0.4,0.1-0.7,0.2c-0.1,0.1-0.2,0.2-0.2,0.4C101,52.4,101.1,52.7,101.3,52.7L101.3,52.7z"/>
			</g>
		</g>
		<g>
			<g>
				<path class="st4" d="M96.6,51.6c0,0-0.1-0.1-0.2-0.1c0,0-0.2-0.1-0.1,0c0,0-0.1,0-0.1-0.1c-0.2-0.1-0.3-0.1-0.6-0.2
					C95.2,51,94.8,51,94.4,51s-0.9,0.1-1.2,0.3l-0.1,0.1L93,51.6l0,0c-0.1,0.1-0.2,0.2-0.2,0.3c0,0.1,0.1,0.2,0.2,0.3s0.2,0,0.4,0
					c-0.1,0-0.1,0-0.2,0c0.1,0,0.2,0,0.3,0c0,0,0.1,0,0,0s0.1,0,0.1,0s0.1,0,0,0c0,0,0,0,0.1,0c0.1,0,0.1,0,0.2,0c0.3,0,0.6,0,0.9,0
					c0.2,0,0.6,0,0.8,0c0.1,0,0.2,0,0.3,0c0.1,0,0,0,0,0s0,0,0.1,0h0.1c0.2,0.1,0.4-0.1,0.4-0.2C96.8,51.8,96.8,51.6,96.6,51.6
					L96.6,51.6z"/>
			</g>
		</g>
		<g>
			<path class="st4" d="M98.7,63.6c0.4-0.8,1.1-1.4,2-1.8c-0.8-0.1-4.2-0.4-5.1,0.1c-1,0.6,0.2,2.8,2.2,2.9c0.2,0,0.4,0,0.6,0
				C98.4,64.4,98.5,64,98.7,63.6z"/>
		</g>
		<g>
			<path class="st8" d="M82.8,59c0,0,0.3,1.3,2.3,2.9c2,1.5,4.9,2.7,4.9,2.7l0.2-1c0,0-3-1.3-4.4-2.8c-1.4-1.4-1.5-2.2-1.5-2.2
				L82.8,59z"/>
		</g>
		<g>
			<path class="st4" d="M90.6,62.7c1.7-0.1,2.5,1.2,2.7,2c0.1,0.8-0.7,1.8-2.4,0.9C88.5,64.7,89,62.8,90.6,62.7z"/>
		</g>
		<g>
			<path class="st8" d="M84.1,49c0,0,0.7-5,4.1-8.4c6.4-6.5,11.8-6.1,11.8-6.1s0-0.9-2.1-1.7c-1.9-0.7-2.8-0.3-2.8-0.3
				s-5.3,0.4-9.7,5.3C81,42.7,80.6,49,80.6,49H84.1z"/>
		</g>
		<g>
			<g>
				<path class="st5" d="M83.5,48.3c-4.2-0.7-6.5,2.5-6.8,5.9c-0.2,3.3,2.2,5.9,5.4,5.5C89.5,59.2,88.7,49.2,83.5,48.3z"/>
			</g>
			<g>
				<path class="st6" d="M81.4,56.5c-1.1,0-2-0.6-2.5-1.5c-0.6-1-0.6-2.3,0.1-3.3c0-0.1,0.1-0.1,0.2,0c0.1,0,0.1,0.1,0,0.2
					c-0.6,0.9-0.7,2-0.1,3c0.4,0.9,1.3,1.4,2.3,1.3c1,0,1.8-0.4,2.3-1.2c0.6-0.9,0.8-2.1,0.3-3.1c-0.3-1-1.4-1.7-2.3-1.5
					c-0.1,0-0.1,0-0.2-0.1c0-0.1,0-0.1,0.1-0.2c1.1-0.1,2.2,0.6,2.7,1.8c0.4,1.1,0.2,2.4-0.3,3.4C83.5,56.1,82.7,56.5,81.4,56.5
					C81.6,56.5,81.6,56.5,81.4,56.5z"/>
			</g>
		</g>
		<g>
			<path class="st4" d="M78.5,70.3c0,0-12.7,3.1-17.2,8.2s-6.5,29.9-6.6,34.5c-0.1,4.6,3.1,6.5,5.1,7.9c1.9,1.3,10.4,3.7,17.2,4
				c6.8,0.3,13.2,0,13.2,0s0-1.4,1-3.7c1-2,2.2-2.4,2.2-2.4l-5.9-2.1c0,0-1-18.3-2.7-27.1C83,79.3,78.5,70.3,78.5,70.3z"/>
		</g>
		<g>
			<path class="st6" d="M99.5,113.6L99.5,113.6c-0.2-0.1-0.2-0.2-0.2-0.3c1.2-2.7,2.4-8,3.1-11.6l0.1-0.3c0.2-1.1,0.4-2.4,0-3.3
				c-0.2-0.4-0.9-1.5-1.4-2.5c-0.6-1-1.2-2-1.3-2.3c-0.3-0.6,0.7-2.1,2.1-4.2c0.3-0.6,0.7-1,0.9-1.3c0.4-0.9,0.2-1.7-0.2-2.5
				l-0.1-0.3c-0.3-0.9-0.8-1.7-1.1-2.5c-0.1-0.3-0.3-0.7-0.4-1c-0.2-0.4-0.4-0.9-0.7-1.3c-1.2-2.8-2.5-5.5-4.1-8.3
				c-0.1-0.1,0-0.2,0.1-0.3c0.1-0.1,0.2,0,0.3,0.1c1.7,2.8,2.9,5.6,4.2,8.3c0.2,0.4,0.4,0.9,0.7,1.3c0.1,0.3,0.3,0.7,0.4,1
				c0.3,0.9,0.8,1.7,1.1,2.5l0.1,0.3c0.4,0.9,0.8,1.9,0.2,3c-0.2,0.3-0.6,0.9-0.9,1.4c-0.8,1.1-2.2,3.3-2,3.8
				c0.1,0.3,0.7,1.2,1.3,2.3c0.6,1,1.2,2,1.4,2.5c0.6,1.1,0.3,2.5,0.1,3.7l-0.1,0.3c-0.2,1.3-1.5,8.2-3.1,11.7
				C99.6,113.6,99.6,113.6,99.5,113.6z"/>
		</g>
		<g>
			<path class="st6" d="M87.1,114.4c0,0-0.1,0-0.1-0.1c-1-1-5.8-9.3-6.1-10.8c-0.2-0.9,0.3-3,0.8-5.1c0.3-1.7,0.8-3.3,0.7-3.8
				C82.2,93.9,81,93,79.8,92c-1.4-1.2-2.9-2.3-3.2-3.4c-0.3-1.2,0-9,0.1-14.1c0.1-1.9,0.1-3.3,0.1-3.8c0-0.1,0.1-0.2,0.2-0.2l0,0
				c0.1,0,0.2,0.1,0.2,0.2c0,0.6,0,2-0.1,3.8c-0.2,4.8-0.4,12.7-0.1,13.9c0.2,1,1.8,2.2,3,3.2c1.3,1.1,2.5,2.1,2.7,2.9
				c0.1,0.6-0.2,2.1-0.7,3.9c-0.4,2-0.9,4.1-0.8,4.9c0.3,1.5,5,9.6,6,10.6c0.1,0.1,0.1,0.2,0,0.3C87.2,114.4,87.1,114.4,87.1,114.4z
				"/>
		</g>
		<g>
			<path class="st6" d="M70,110.8C69.9,110.8,69.9,110.8,70,110.8c-0.1,0-0.2-0.1-0.2-0.2c0.1-1.1,2.5-22.9,2.7-24.6
				c0-0.1,0.1-0.2,0.2-0.2s0.2,0.1,0.2,0.2c-0.1,1.7-2.5,23.5-2.7,24.6C70.2,110.8,70,110.8,70,110.8z"/>
		</g>
		<g>
			<path class="st6" d="M87.3,116.7C87.3,116.7,87.2,116.7,87.3,116.7c-0.7-0.2-3-1-6-2c-6.1-2-14.3-4.9-15.8-5.6
				c-0.1,0-0.1-0.2-0.1-0.3c0-0.1,0.2-0.1,0.3-0.1c1.5,0.8,10.2,3.7,15.8,5.6c3,1,5.3,1.8,5.9,2c0.1,0,0.1,0.2,0.1,0.2
				C87.4,116.6,87.4,116.7,87.3,116.7z"/>
		</g>
		<g>
			<path class="st6" d="M84.4,125.4c-5.3,0-15.6-1-23.5-3.8c-0.1,0-0.2-0.1-0.1-0.2c0-0.1,0.1-0.2,0.2-0.1
				c9.9,3.5,23.7,4.1,26.3,3.5c0.1,0,0.2,0,0.2,0.1s0,0.2-0.1,0.2C87,125.4,85.9,125.4,84.4,125.4z"/>
		</g>
	</g>
	<g>
		<g>
			<g>
				<path class="st3" d="M23.6,73.1c1.7,1.4,3.8,2.4,5.2,4.1c0.6,0.7,1.1,1.3,1.7,2.1c0.3,0.6,1.4,1.3,1.5,2c0.1,0.3,0.1-0.1,0-0.3
					l0,0c-0.1-1.3-0.2-2.5-0.3-3.9c0-1.3,0-2.5,0-3.9c-0.1-1.8-0.7-3.5-2.2-4.6c-0.8-0.6-1.7-0.9-2.3-1.5c-0.7-0.6-0.3-1.2,0-1.9
					c0.3-0.7,0.8-1.2,0.9-1.9c0.1-0.8-0.1-1.7-0.6-2.3c-0.9-1.4-2.8-3.1-4.5-2.9c-1.5,0.2-1.7,1.9-1.7,3.1c0,1.2,0.1,2.3,0.1,3.5
					c0,1.2-0.2,2.4-0.2,3.7C21.1,70.3,22.1,71.8,23.6,73.1z"/>
				<path class="st3" d="M38.9,92c0.4-1.1,1-2.1,1.7-3.1c0.9-1.3,1.9-2.7,2.4-4.2c0.7-1.5,0.6-3.2,0.6-4.9c0-1.2,0.4-2.4,0.3-3.7
					c0-0.6-0.3-1.5-1.1-1.4c-0.6,0.1-0.9,0.8-1.1,1.2c-0.4,0.8-0.7,1.7-1,2.5c-0.1,0.3-0.2,0.7-0.3,1c-0.1,0.2-0.3,0.7-0.6,0.6
					c-0.4-0.1,0-1.9,0-2.2c0.3-1.5,0.8-3,0.9-4.5c0.1-2.3-0.1-5.1-2.3-6.3c-0.6-0.3-1.3-0.6-1.9,0c-0.6,0.4-0.7,1.3-0.8,2
					c-0.2,2.1,0.2,4.2,0.9,6.2c0.6,1.7,1.2,3.4,1.3,5.2c0,1.7-0.9,3.2-1.2,4.9c-0.7,2.5-0.6,4-0.6,4.8c0,1,0,2.1,0.1,3.1
					s0.1,1.9,0.2,2.9c0,0.2,0,0.4,0.1,0.6c-0.3-0.9-0.4-1.9-0.8-2.8c-0.6-1.5-1.2-3.1-1.7-4.8c-0.4-1.3-0.9-2.7-1.4-3.9
					s-1.2-2.4-2.2-3.3C29.8,81.2,29,81,28.2,81c-0.6,0-1,0.2-1.4,0.3c-0.6,0.1-1.1,0.1-1.5-0.3c-1.7-1.2-2.1-3.4-3.3-5.1
					c-0.9-1.2-3-3.2-4.5-1.9c-0.8,0.7-1.1,2-1,3c0,1.2,0.6,2.4,1.2,3.4c0.7,1.1,1.7,2.1,2.2,3.3c0.3,0.7,0.4,1.3,0.3,2.1
					C20,86.6,20,87.3,20.2,88c0.8,2.1,3.1,1.8,4.9,1.9c1.2,0,2.7,0.2,3.9,0.7c1.4,0.4,2.3,1.3,2.8,2.8c0.3,1,0.6,2.1,1.2,3
					c0.3,0.4,0.8,0.7,1.2,0.9c0.7,0.3,2.9,0.4,2.9,0.2c0-0.7,0.3-1.3,0.6-2C38.1,94.3,38.4,93.2,38.9,92z"/>
				<path class="st3" d="M48.9,91.6c-0.2-1.2-0.1-2.5-0.8-3.7c0-0.1-0.1-0.1-0.2-0.1c-0.4,0.2-0.4,0.9-0.4,1.3c0,0.7,0,1.3-0.1,2
					c-0.1,1.2-0.4,2.4-0.9,3.5c-0.4,1.2-1.3,2-2.7,2.3c-0.8,0.2-1.7,0.4-2.3,1c-0.6,0.4-1,1.1-1.3,1.9c-0.9,1.9-1.2,4-1.7,6.1
					c-0.2,1.3-0.4,2.8-0.8,4.1c-0.3,1.3-0.7,2.7-0.9,4.1c0,0.1-0.1,0.1-0.1,0.2c-0.1,0.2,0.2,0.3,0.3,0.1c1.3-2,2.9-3.8,5.1-4.9
					c1-0.6,2.3-0.6,3.1-1.4c0.7-0.6,0.7-1.5,0.7-2.3c-0.1-1.1-0.7-2-1.2-2.9c-0.3-0.6-0.7-1-0.6-1.7c0.1-0.6,0.6-1,1.1-1.3
					c0.9-0.6,2-0.8,2.7-1.7c0.7-0.8,1.1-1.7,1.1-2.7C49.3,94.4,49.1,93,48.9,91.6z"/>
				<path class="st3" d="M31.1,98.6c-1.1-1.4-2.5-2.8-4.1-3.8c-0.9-0.6-2.8-1.7-3.2,0c-0.2,1,0.7,1.9,1.3,2.5c0.9,0.9,2,1.7,2.8,2.8
					c-1,0.3-2,0.3-2.9,1c-1,0.8-1.4,2.3-0.4,3.3c0.4,0.4,1.1,0.8,1.8,1.1c0.8,0.3,1.5,0.8,2.3,1.1c1.8,0.8,3.4,1.4,5,2.7
					c1.5,1.2,2.9,3.2,3,5.2c0,0.2-0.1,0,0-0.1c0.1,0,0.2,0,0.2-0.1c0-2.9-0.6-5.6-1.8-8.4C34.2,103.1,32.7,100.7,31.1,98.6z"/>
			</g>
			<g>
				<path class="st4" d="M27.1,71.4c0.7,1.3,1.3,2.7,2,3.9s1.3,2.4,1.9,3.8c0.7,1.7,1.3,3.2,2,4.9c0.7,1.7,1.3,3.4,1.8,5.1
					c1,3.4,1.7,6.9,2,10.4c0.2,1.8,0.2,3.5,0.2,5.4c0,1.4-0.2,2.8-0.3,4.2s-0.2,2.9-0.1,4.4c0.1,1.2,0.3,2.7,1.2,3.5
					c0.2,0.2,0.4,0,0.3-0.2c-1.1-2.3-1.1-4.9-0.9-7.3c0.1-1.3,0.3-2.8,0.3-4.1c0.1-1.8,0-3.5-0.2-5.3c-0.3-3.4-1-6.9-1.9-10.2
					c-0.4-1.8-1-3.4-1.7-5.1c-0.7-1.7-1.4-3.3-2-5c-1.1-3-2.9-5.6-4.4-8.5C27.2,71.1,27,71.3,27.1,71.4L27.1,71.4z"/>
			</g>
			<g>
				<path class="st4" d="M36.8,96.1c0.2-2.2,0.3-4.3,1.1-6.4c0.3-1,0.8-1.9,1.1-2.9c0.2-0.8,0.7-1.9,0.4-2.8c0-0.1-0.1-0.1-0.2,0
					c-0.1,0.4-0.1,1-0.2,1.5c-0.1,0.4-0.2,1-0.3,1.4c-0.3,1-0.8,2-1.1,3c-0.7,1.9-1.1,4.1-0.9,6.1C36.6,96.2,36.8,96.2,36.8,96.1
					L36.8,96.1z"/>
			</g>
			<g>
				<path class="st4" d="M24.1,83.4c0.9,2.1,3.5,2.2,5.4,2.7c1.3,0.3,2.3,1.2,3.1,2.4c0.8,1.3,1.3,2.8,1.8,4.2l0,0
					c-0.6-2.5-1.3-5.5-3.9-6.8c-2.1-0.9-4.9-0.4-6.2-2.8C24.2,83.2,24,83.3,24.1,83.4L24.1,83.4z"/>
			</g>
			<g>
				<path class="st4" d="M35.4,95.7c0.1,0.1,0.2,0.3,0.3,0.4c0,0.1,0.1,0.1,0.2,0.2c0.1,0.1,0.1,0.1,0.2,0.1c0,0,0.1,0,0-0.1
					c0-0.1-0.1-0.1-0.2-0.1c-0.1,0-0.1-0.1-0.2-0.2C35.7,95.9,35.6,95.8,35.4,95.7C35.4,95.6,35.4,95.7,35.4,95.7L35.4,95.7z"/>
			</g>
			<g>
				<path class="st4" d="M30,102.4c1.5,1.2,2.9,2.7,4,4.3c0.6,0.8,1,1.5,1.4,2.4c0.4,0.9,0.8,1.9,1.2,2.8c0,0.1,0.1,0.1,0.1,0
					c-0.2-2-1.4-3.7-2.4-5.3c-0.6-0.9-1.2-1.5-1.9-2.2c-0.8-0.8-1.4-1.4-2.3-2C30,102.1,29.9,102.4,30,102.4L30,102.4z"/>
			</g>
			<g>
				<path class="st4" d="M41.9,100c-0.8,0.4-0.8,1.5-0.8,2.3c0,1.4,0.3,2.8-0.3,4.1c-0.6,1.2-1.4,2.2-2.1,3.3
					c-0.7,1-1.3,2.4-1.3,3.7c0,0.1,0.1,0.1,0.1,0c0.2-0.6,0.3-1.2,0.6-1.8c0.2-0.7,0.6-1.3,0.9-1.9c0.7-1,1.5-2,2-3.1
					c0.6-1.2,0.4-2.3,0.4-3.7c0-0.8-0.1-2.1,0.6-2.8C42.1,100.1,42,100,41.9,100L41.9,100z"/>
			</g>
		</g>
		<path class="st5" d="M37.1,113.5c-2.9,0-8.5-0.1-8.5-0.1l1.3,10.2c0.3,2.3,2.2,4,4.5,4h2.4h0.2h2.4c2.3,0,4.3-1.7,4.5-4l1.3-10.2
			C45.6,113.4,40,113.4,37.1,113.5z"/>
	</g>
	<g>
		<g>
			<g>
				<polygon class="st9" points="178,94.7 161.4,127.7 112.9,128 127.8,94.3 				"/>
			</g>
			<g>
				<path class="st10" d="M80.7,127.8v-2.7h31.4l14.4-31.7h50.2l1.2,1.2h-49l-15.1,33.1C114,127.8,80.7,127.8,80.7,127.8z"/>
			</g>
			<g>
				<path class="st10" d="M152.8,113c-0.6,1.7-3.5,2.9-6.6,2.9c-3.1,0-5.2-1.4-4.6-3.1c0.6-1.7,3.5-2.9,6.6-2.9
					S153.4,111.3,152.8,113z"/>
			</g>
		</g>
		<g>
			<path class="st5" d="M114,128C113.9,128,113.9,128,114,128c-0.2-0.1-0.2-0.2-0.2-0.3l15.1-33.2H178c0.1,0,0.2,0.1,0.2,0.2
				s-0.1,0.2-0.2,0.2H129l-14.9,33C114.1,128,114,128,114,128z"/>
		</g>
	</g>
	<g>
		<g>
			<rect x="20.8" y="130.4" class="st4" width="57.7" height="12.8"/>
			<rect x="78.2" y="130.4" class="st6" width="103.8" height="12.8"/>
		</g>
		<polygon class="st11" points="78.6,130.4 78.2,130.4 20.8,130.4 20.8,132.7 78.2,132.7 78.6,132.7 181.9,132.7 181.9,130.4 		"/>
		<rect x="18" y="127.8" class="st4" width="63" height="3.1"/>
		<rect x="80.7" y="127.8" class="st6" width="103.8" height="3.1"/>
	</g>
	<g>
		<path class="st5" d="M60.9,60.7H46.7c-3,0-5.3-2.4-5.3-5.3v-4c0-3,2.4-5.3,5.3-5.3h14.2c3,0,5.3,2.4,5.3,5.3v4
			C66.3,58.3,63.8,60.7,60.9,60.7z"/>
		<polygon class="st5" points="72,53.3 64.4,50.1 64.4,56.6 		"/>
		<g>
			<circle class="st4" cx="48.9" cy="53.3" r="1.4"/>
			<circle class="st4" cx="53.8" cy="53.3" r="1.4"/>
			<circle class="st4" cx="58.6" cy="53.3" r="1.4"/>
		</g>
	</g>
	<g>
		<path class="st12" d="M167.7,14.7h-47c-3,0-5.4,2.4-5.4,5.4v22.2c0,3,2.4,5.4,5.4,5.4h4.2c0.1,2-0.2,5-1.9,8.9
			c5.4-2.5,8.5-6.3,10.2-8.9h34.4c3,0,5.4-2.4,5.4-5.4V20.2C173.1,17.1,170.6,14.7,167.7,14.7z"/>
		<path class="st5" d="M147.5,25.3h-23.4c-0.7,0-1.1-0.6-1.1-1.1l0,0c0-0.7,0.6-1.1,1.1-1.1h23.4c0.7,0,1.1,0.6,1.1,1.1l0,0
			C148.7,24.9,148.2,25.3,147.5,25.3z"/>
		<path class="st5" d="M164.2,32.1h-40.4c-0.4,0-0.7-0.3-0.7-0.7l0,0c0-0.4,0.3-0.7,0.7-0.7h40.5c0.4,0,0.7,0.3,0.7,0.7l0,0
			C165,31.7,164.7,32.1,164.2,32.1z"/>
		<path class="st5" d="M164.2,36.1h-40.4c-0.4,0-0.7-0.3-0.7-0.7l0,0c0-0.4,0.3-0.7,0.7-0.7h40.5c0.4,0,0.7,0.3,0.7,0.7l0,0
			C165,35.7,164.7,36.1,164.2,36.1z"/>
		<path class="st5" d="M155.5,40.3h-31.7c-0.4,0-0.7-0.3-0.7-0.7l0,0c0-0.4,0.3-0.7,0.7-0.7h31.7c0.4,0,0.7,0.3,0.7,0.7l0,0
			C156.2,39.9,155.8,40.3,155.5,40.3z"/>
		<path class="st5" d="M164,25.3h-11.1c-0.7,0-1.1-0.6-1.1-1.1l0,0c0-0.7,0.6-1.1,1.1-1.1H164c0.7,0,1.1,0.6,1.1,1.1l0,0
			C165.1,24.9,164.6,25.3,164,25.3z"/>
	</g>
	<g>
		<path class="st5" d="M134.6,76.7h-9.9c-1.2,0-2.2-1-2.2-2.2v-5.9c0-1.2,1-2.2,2.2-2.2h9.9c1.2,0,2.2,1,2.2,2.2v5.9
			C136.8,75.7,135.8,76.7,134.6,76.7z"/>
		<g>
			<g>
				<path class="st6" d="M129.7,73c-0.1,0-0.1,0-0.2-0.1l-6.9-5.6c-0.1-0.1-0.1-0.3,0-0.4c0.1-0.1,0.3-0.1,0.4,0l6.6,5.5l6.5-5.6
					c0.1-0.1,0.3-0.1,0.4,0c0.1,0.1,0.1,0.3,0,0.4l-6.8,5.9C129.8,73,129.8,73,129.7,73z"/>
			</g>
			<g>
				<path class="st6" d="M122.8,76.5c-0.1,0-0.1,0-0.2-0.1s-0.1-0.3,0-0.4l4.8-5.1c0.1-0.1,0.3-0.1,0.4,0c0.1,0.1,0.1,0.3,0,0.4
					l-4.8,5.1C122.9,76.3,122.9,76.5,122.8,76.5z"/>
			</g>
			<g>
				<path class="st6" d="M136.4,76.2c-0.1,0-0.1,0-0.2-0.1l-4.8-4.8c-0.1-0.1-0.1-0.3,0-0.4c0.1-0.1,0.3-0.1,0.4,0l4.8,4.8
					c0.1,0.1,0.1,0.3,0,0.4C136.6,76.2,136.4,76.2,136.4,76.2z"/>
			</g>
		</g>
		<g>
			<g>
				<circle class="st13" cx="137.4" cy="66.1" r="4.2"/>
			</g>
			<text transform="matrix(1 0 0 1 134.4629 67.7979)" class="st5 st14 st15">85</text>
		</g>
	</g>
	<g>
		<g>
			<path class="st4" d="M178.8,64.5H156c-1.4,0-2.7-1.2-2.7-2.7v-2c0-1.4,1.2-2.7,2.7-2.7h22.8c1.4,0,2.7,1.2,2.7,2.7v2
				C181.5,63.3,180.3,64.5,178.8,64.5z"/>
		</g>
		<g>
			<path class="st5" d="M156.9,62.7c-0.1,0-0.2,0-0.2-0.1c-0.1-0.1-0.1-0.2-0.1-0.3l0.1-0.9l0,0c0,0,0,0-0.1,0l-0.8,0.6
				c-0.1,0.1-0.2,0.1-0.3,0.1s-0.2-0.1-0.2-0.2c-0.1-0.1-0.1-0.2,0-0.3c0-0.1,0.1-0.1,0.2-0.2l0.9-0.4l0,0l0,0l-0.9-0.4
				c-0.1,0-0.2-0.1-0.2-0.2c0-0.1,0-0.2,0-0.3c0.1-0.1,0.1-0.1,0.2-0.2c0.1,0,0.2,0,0.3,0.1l0.8,0.6c0,0,0,0,0.1,0l0,0l-0.1-0.9
				c0-0.1,0-0.2,0.1-0.3c0.1-0.1,0.1-0.1,0.3-0.1c0.1,0,0.2,0,0.2,0.1c0.1,0.1,0.1,0.2,0.1,0.3l-0.1,0.9l0,0c0,0,0,0,0.1,0l0.8-0.6
				c0.1-0.1,0.2-0.1,0.3-0.1s0.2,0.1,0.2,0.2c0.1,0.1,0.1,0.2,0,0.3c0,0.1-0.1,0.1-0.2,0.2l-0.9,0.4l0,0l0,0l0.9,0.4
				c0.1,0,0.2,0.1,0.2,0.2s0,0.2,0,0.3c-0.1,0.1-0.1,0.1-0.2,0.2c-0.1,0-0.2,0-0.3-0.1l-0.8-0.6c0,0,0,0-0.1,0l0,0l0.1,0.9
				c0,0.1,0,0.2-0.1,0.3C157.1,62.7,157,62.7,156.9,62.7z"/>
		</g>
		<g>
			<path class="st5" d="M162,62.7c-0.1,0-0.2,0-0.2-0.1c-0.1-0.1-0.1-0.2-0.1-0.3l0.1-0.9l0,0c0,0,0,0-0.1,0l-0.8,0.6
				c-0.1,0.1-0.2,0.1-0.3,0.1s-0.2-0.1-0.2-0.2c-0.1-0.1-0.1-0.2,0-0.3c0-0.1,0.1-0.1,0.2-0.2l0.9-0.4l0,0l0,0l-0.9-0.4
				c-0.1,0-0.2-0.1-0.2-0.2c0-0.1,0-0.2,0-0.3c0.1-0.1,0.1-0.1,0.2-0.2c0.1,0,0.2,0,0.3,0.1l0.8,0.6c0,0,0,0,0.1,0l0,0l-0.1-0.9
				c0-0.1,0-0.2,0.1-0.3c0.1-0.1,0.1-0.1,0.3-0.1c0.1,0,0.2,0,0.2,0.1c0.1,0.1,0.1,0.2,0.1,0.3l-0.1,0.9l0,0c0,0,0,0,0.1,0l0.8-0.6
				c0.1-0.1,0.2-0.1,0.3-0.1s0.2,0.1,0.2,0.2c0.1,0.1,0.1,0.2,0,0.3c0,0.1-0.1,0.1-0.2,0.2l-0.9,0.4l0,0l0,0l0.9,0.4
				c0.1,0,0.2,0.1,0.2,0.2s0,0.2,0,0.3c-0.1,0.1-0.1,0.1-0.2,0.2c-0.1,0-0.2,0-0.3-0.1l-0.8-0.6c0,0,0,0-0.1,0l0,0l0.1,0.9
				c0,0.1,0,0.2-0.1,0.3C162.2,62.7,162.1,62.7,162,62.7z"/>
		</g>
		<g>
			<path class="st5" d="M167.1,62.7c-0.1,0-0.2,0-0.2-0.1c-0.1-0.1-0.1-0.2-0.1-0.3l0.1-0.9l0,0c0,0,0,0-0.1,0L166,62
				c-0.1,0.1-0.2,0.1-0.3,0.1s-0.2-0.1-0.2-0.2c-0.1-0.1-0.1-0.2,0-0.3c0-0.1,0.1-0.1,0.2-0.2l0.9-0.4l0,0l0,0l-0.9-0.4
				c-0.1,0-0.2-0.1-0.2-0.2c0-0.1,0-0.2,0-0.3c0.1-0.1,0.1-0.1,0.2-0.2c0.1,0,0.2,0,0.3,0.1l0.8,0.6c0,0,0,0,0.1,0l0,0l-0.1-0.9
				c0-0.1,0-0.2,0.1-0.3C167,59,167,59,167.2,59c0.1,0,0.2,0,0.2,0.1c0.1,0.1,0.1,0.2,0.1,0.3l-0.1,0.9l0,0c0,0,0,0,0.1,0l0.8-0.6
				c0.1-0.1,0.2-0.1,0.3-0.1s0.2,0.1,0.2,0.2c0.1,0.1,0.1,0.2,0,0.3c0,0.1-0.1,0.1-0.2,0.2l-0.9,0.4l0,0l0,0l0.9,0.4
				c0.1,0,0.2,0.1,0.2,0.2s0,0.2,0,0.3c-0.1,0.1-0.1,0.1-0.2,0.2c-0.1,0-0.2,0-0.3-0.1l-0.8-0.6c0,0,0,0-0.1,0l0,0l0.1,0.9
				c0,0.1,0,0.2-0.1,0.3C167.3,62.7,167.2,62.7,167.1,62.7z"/>
		</g>
		<g>
			<path class="st5" d="M172.2,62.7c-0.1,0-0.2,0-0.2-0.1c-0.1-0.1-0.1-0.2-0.1-0.3l0.1-0.9l0,0c0,0,0,0-0.1,0l-0.8,0.6
				c-0.1,0.1-0.2,0.1-0.3,0.1s-0.2-0.1-0.2-0.2c-0.1-0.1-0.1-0.2,0-0.3c0-0.1,0.1-0.1,0.2-0.2l0.9-0.4l0,0l0,0l-0.9-0.4
				c-0.1,0-0.2-0.1-0.2-0.2c0-0.1,0-0.2,0-0.3c0.1-0.1,0.1-0.1,0.2-0.2c0.1,0,0.2,0,0.3,0.1l0.8,0.6c0,0,0,0,0.1,0l0,0l-0.1-0.9
				c0-0.1,0-0.2,0.1-0.3c0.1-0.1,0.1-0.1,0.3-0.1c0.1,0,0.2,0,0.2,0.1c0.1,0.1,0.1,0.2,0.1,0.3l-0.1,0.9l0,0c0,0,0,0,0.1,0l0.8-0.6
				c0.1-0.1,0.2-0.1,0.3-0.1s0.2,0.1,0.2,0.2c0.1,0.1,0.1,0.2,0,0.3c0,0.1-0.1,0.1-0.2,0.2l-0.9,0.4l0,0l0,0l0.9,0.4
				c0.1,0,0.2,0.1,0.2,0.2s0,0.2,0,0.3c-0.1,0.1-0.1,0.1-0.2,0.2c-0.1,0-0.2,0-0.3-0.1l-0.8-0.6c0,0,0,0-0.1,0l0,0l0.1,0.9
				c0,0.1,0,0.2-0.1,0.3C172.4,62.7,172.3,62.7,172.2,62.7z"/>
		</g>
		<g>
			<path class="st3" d="M177.3,62.7c-0.1,0-0.2,0-0.2-0.1c-0.1-0.1-0.1-0.2-0.1-0.3l0.1-0.9l0,0c0,0,0,0-0.1,0l-0.8,0.6
				c-0.1,0.1-0.2,0.1-0.3,0.1s-0.2-0.1-0.2-0.2c-0.1-0.1-0.1-0.2,0-0.3c0-0.1,0.1-0.1,0.2-0.2l0.9-0.4l0,0l0,0l-0.9-0.4
				c-0.1,0-0.2-0.1-0.2-0.2c0-0.1,0-0.2,0-0.3c0.1-0.1,0.1-0.1,0.2-0.2c0.1,0,0.2,0,0.3,0.1l0.8,0.6c0,0,0,0,0.1,0l0,0l-0.1-0.9
				c0-0.1,0-0.2,0.1-0.3c0.1-0.1,0.1-0.1,0.3-0.1c0.1,0,0.2,0,0.2,0.1c0.1,0.1,0.1,0.2,0.1,0.3l-0.1,0.9l0,0c0,0,0,0,0.1,0l0.8-0.6
				c0.1-0.1,0.2-0.1,0.3-0.1s0.2,0.1,0.2,0.2c0.1,0.1,0.1,0.2,0,0.3c0,0.1-0.1,0.1-0.2,0.2l-0.9,0.4l0,0l0,0l0.9,0.4
				c0.1,0,0.2,0.1,0.2,0.2s0,0.2,0,0.3c-0.1,0.1-0.1,0.1-0.2,0.2c-0.1,0-0.2,0-0.3-0.1l-0.8-0.6c0,0,0,0-0.1,0l0,0l0.1,0.9
				c0,0.1,0,0.2-0.1,0.3C177.5,62.7,177.4,62.7,177.3,62.7z"/>
		</g>
	</g>
</g>
</svg>
